PathFileType	4	(X/Y/Z)	Apose_0-50.trc
DataRate	CameraRate	NumFrames	NumMarkers	Units	OrigDataRate	OrigDataStartFrame	OrigNumFrames
30	30	7	22	m	30	20	50
Frame#	Time	Hip			RHip			RKnee			RAnkle			RBigToe			RSmallToe			RHeel			LHip			LKnee			LAnkle			LBigToe			LSmallToe			LHeel			Neck			Head			Nose			RShoulder			RElbow			RWrist			LShoulder			LElbow			LWrist		
		X1	Y1	Z1	X2	Y2	Z2	X3	Y3	Z3	X4	Y4	Z4	X5	Y5	Z5	X6	Y6	Z6	X7	Y7	Z7	X8	Y8	Z8	X9	Y9	Z9	X10	Y10	Z10	X11	Y11	Z11	X12	Y12	Z12	X13	Y13	Z13	X14	Y14	Z14	X15	Y15	Z15	X16	Y16	Z16	X17	Y17	Z17	X18	Y18	Z18	X19	Y19	Z19	X20	Y20	Z20	X21	Y21	Z21	X22	Y22	Z22
21	0.7	0.032565085137902045	0.9219631828792733	0.35619098970856816	0.021306355612435626	0.8854263181928353	0.4636480699563112	0.0016201665114176644	0.5087861674703454	0.4972320997716882	-0.004463640388238693	0.1090459440412967	0.5162357313123886	0.1897247751733644	0.03169339376814274	0.5603919121588269	0.14551694071043866	0.0330742454681219	0.6298614804265006	-0.03747401877757236	0.03526865844871795	0.49750137278527384	0.026498573556366388	0.8835973548490758	0.24574313720205018	0.007625090875442265	0.509693398510511	0.22555312804431055	0.0020492869172817935	0.12410283062641028	0.20593369265206854	0.2162086892806828	0.048407552861590014	0.18749779625894128	0.1664316638698542	0.0366178658890538	0.12369995969853918	-0.042653946156550694	0.059218028774569144	0.19595993664851408	0.051163264024867115	1.5700026255454127	0.34817278843917865	0.3145860314490647	1.7657710882572832	0.276154560327127	0.3112389247373882	1.6123602108512847	0.32854042806534833	0.019774005794384847	1.4911531016592479	0.5303167370700594	0.05060791041127482	1.2346503801420992	0.7136897816287807	0.11660774657449961	1.0484687947655353	0.8879373806636613	0.012743080684759985	1.4787140475016496	0.14750316304621391	0.024235070565010643	1.2243628179857524	0.0018455990818262594	0.08061212513777805	1.0190770371342703	-0.14612883691108564
22	0.7333333333333333	0.03366218970637057	0.9199859315201067	0.35667389375471353	0.021175995343679185	0.8845171568103356	0.46122659648910697	0.0010950813069838337	0.5072274588884156	0.49653105570849615	-0.0030399549745780624	0.10854723982443952	0.5161553819039395	0.2022302261798153	0.040437962497985	0.5685894911614652	0.1464263185039255	0.03265950519341317	0.6299719622439176	-0.03573593218593284	0.03664382373559927	0.497599506419328	0.025761174100310615	0.8826996447522927	0.24432846501161967	0.00833278279443187	0.5082067081766105	0.225358374020952	0.0032220193623209202	0.12235992775572546	0.20566562700671734	0.21554715117028664	0.049460784364316356	0.18654705235275765	0.16572708282627557	0.0376600866816176	0.12266050921908465	-0.043926750224205835	0.06021673920911355	0.19785621377850002	0.0505284269074093	1.5701059037096807	0.3475181659871341	0.314772144392848	1.7663248932255409	0.2762710790076133	0.3140047748764929	1.61221156399932	0.3297028963739644	0.021135653989727686	1.4926878555798215	0.5293145664269285	0.06437516858711752	1.224281527083614	0.7252361871443744	0.11720487321166691	1.048408851928214	0.8873200096235494	0.012024336447658558	1.4788293740057503	0.14674164087654282	0.02671808441666187	1.2252872443108354	0.001077016105702353	0.07403238464855136	1.0149363313451234	-0.1510134302167363
23	0.7666666666666667	0.035181682134369625	0.9202043779722308	0.35698890106396836	0.02203350939187184	0.8857897191197659	0.46312615544236563	0.0011739859498703167	0.508598341656358	0.49615342035542664	-0.004793278362507102	0.11019036271985554	0.5160811766961834	0.18863910729749797	0.03221000394493709	0.5593580800403893	0.14501633786035129	0.033983027328932706	0.627751521865904	-0.03666536777746899	0.03687653013025051	0.4981393454634488	0.02814501445898874	0.8821626525645953	0.2442996423864237	0.010930109018034173	0.5084752732229939	0.22500581352297752	0.003948042992172162	0.12180088731696394	0.2058754022216569	0.21982500889001963	0.047675587354320634	0.1887550245954752	0.16613670380469897	0.037661626469726865	0.12371626214256229	-0.053102144979314606	0.03908430268693331	0.20857686179031695	0.06589623760607427	1.590419300040328	0.3533491764346847	0.2564073675714789	1.7660728211253882	0.35112147106622904	0.22381821329341656	1.5763729560278323	0.32187408210133445	0.020609992255964344	1.4924262674189315	0.5302648314731273	0.06442724711651322	1.2241661782759181	0.725031297179535	0.11597567474238586	1.0479654709234876	0.8857574129288167	0.013028152436681402	1.4792019844362692	0.14385330250378547	0.02746633011037099	1.226533858792267	0.0016168202543767197	0.08331788366678006	1.0187631302385816	-0.14740954735515066
24	0.8	0.035027935766807614	0.922764429537807	0.3557588534743639	0.024756442854343735	0.8895991374993995	0.46196684587986836	0.0014990348438942464	0.5104034652293731	0.4961421406459309	-0.009504201242763424	0.12105751091841431	0.5157060634410586	0.1892992153678058	0.03366405497695804	0.5579173811953706	0.14440366811234653	0.03137435723450718	0.6259759529464677	-0.03564499809200238	0.0349207795742905	0.4972208914313207	0.028904078092998525	0.8871036966690102	0.24312835456232967	0.0122802677102887	0.5129408114022854	0.22219098659941894	0.004491420850878939	0.12352150609479076	0.20459891369466798	0.21890023074730033	0.046394702139178116	0.1882953782315821	0.16721994192405198	0.037171457682561	0.12468819751546088	-0.04390232990201662	0.06172140004106998	0.19879583301946974	0.06395906452293056	1.5905977360094758	0.3532105023564796	0.3168305113053395	1.7727314292337844	0.2742037280030129	0.30739530683311905	1.617677979584569	0.3266753796243274	0.017357012505902776	1.493598196146174	0.5266184110908961	0.070545887198104	1.239220305328521	0.7166432854086869	0.1164392566031104	1.049601660122137	0.8856497960243253	0.014833861191678501	1.4814390685645793	0.1452972924505666	0.02869322995669272	1.2256685636509725	0.001423617605512693	0.0836549008939082	1.0192175209505738	-0.14869624054794928
25	0.8333333333333334	0.03191761974224351	0.921426170535948	0.3567462807838003	0.025003497100489148	0.88181618973873	0.46289946013375716	0.0025590276103664095	0.5095195046347121	0.49440289665916204	-0.010856682016578991	0.12123060298450335	0.5155763079442214	0.19016121615124254	0.031230969399136253	0.561807698738235	0.14628552153977054	0.03185021275843418	0.629188969589671	-0.04868233466414744	0.046745594878815286	0.5052080739470515	0.024885942410364317	0.8815311879858982	0.24536685245437012	0.010584952565714055	0.5076153155386227	0.22656574917415204	0.003751508678885593	0.12508920034776388	0.20593299250446165	0.21971901965758794	0.04636923315462154	0.18706410499040532	0.16680831315317038	0.034384244702572085	0.12482292981525203	-0.04289507729943031	0.05838572115803758	0.2017886640637372	0.04779016058357667	1.5725944567684094	0.3455860559919092	0.24275013202676363	1.7579194605305184	0.3362178676408147	0.2271236880618833	1.5783901480747844	0.3249222939773235	0.019208035367471128	1.4907524840151132	0.5312734575475744	0.07255640897222028	1.2380134149393895	0.7154155362833945	0.11467777562821957	1.0495234498796062	0.8838674766439928	0.010876669900947985	1.479992030682574	0.1450213429082619	0.027017173835848503	1.2256163117355203	0.0009466300886361273	0.07944967281929384	1.0187759718225344	-0.1525934054304719
26	0.8666666666666667	0.03250005341506326	0.9211806546831228	0.35719706797741885	0.02294157132722936	0.8815005607238543	0.4629270098514617	0.003824809219644609	0.5082174879111684	0.4954826344920078	-0.003677037525416358	0.1100021960725531	0.5155921457940698	0.20103654531669565	0.02729713002786066	0.5737732554629172	0.14817745236357457	0.03307411824061633	0.6300200779434646	-0.0340703932301615	0.035614597827214815	0.49579246256994836	0.02569313268030097	0.8798583621768024	0.24486598863853398	0.010320270518475736	0.5082530069329732	0.22313515377490212	0.0018459576829161163	0.12402260811773284	0.20661308429434294	0.22003891385455804	0.04689540709123308	0.18836741649326913	0.1682741075250696	0.03513891588385198	0.12437574036627558	-0.04406038165285875	0.05716653284504367	0.20046431782339286	0.048383879155796006	1.572420045046901	0.34651433963583217	0.24162212724998286	1.7585370920750731	0.33908499869017067	0.22694375978067013	1.5779733303345962	0.3245368912314057	0.019420015354972002	1.4901034029656623	0.5320093327799076	0.07192595391732205	1.2377447484936817	0.7150760953837751	0.11564776108850376	1.050632166053778	0.8847586885623449	0.01282790102253326	1.4793214333242724	0.14315913147699505	0.026793688023669826	1.2257030493580205	0.000540199166140054	0.0786367360110596	1.017754456317484	-0.15238910888267607
27	0.9	0.03325904309763208	0.9219948460151444	0.35655043033561384	0.026410171814977818	0.8815829168513886	0.4622295855961131	0.0028379968892083282	0.5075925629508129	0.4946855673480869	-0.004414829058665257	0.10847600013303794	0.5153618020869756	0.2010709187328992	0.03774695339280627	0.5672585470378018	0.14661077484456045	0.030825214461560464	0.6295582786268602	-0.04779352603203087	0.04707182038524684	0.5058797279994913	0.02616885905568117	0.8806955925818304	0.24552606266056234	0.011233258964533303	0.5065744924975453	0.2268487174640513	0.0016206469548358858	0.12339892830275241	0.20625805486169568	0.2184400073986685	0.04623309384523509	0.18745876213467266	0.166136754607334	0.03547841459485399	0.1233928690286897	-0.04253068384975552	0.057150166840096446	0.20124889194992818	0.04747541148753137	1.5727745524889796	0.3459177659511872	0.3090544803466608	1.768194427559231	0.2690336937390382	0.3159822321821899	1.61590377971277	0.33379405643802207	0.01873503097295306	1.490659688454001	0.5309415612841548	0.07238136564564447	1.2370899695267006	0.7158762095580927	0.11548614861891607	1.047051470108295	0.8866177275308674	0.014326157259592494	1.4824223184895695	0.14439179007068922	0.027598075795748106	1.2258767918285345	0.0022647276948971305	0.0791762122559927	1.0186015417476253	-0.15054793193914429
